<svg viewBox="0 0 32 32" xml:space="preserve" xmlns="http://www.w3.org/2000/svg" enable-background="new 0 0 32 32"><g id="icons"><g id="gift_x5F_box"><path d="M24.8 6.5c.2-.8.2-2-1.2-3.3C22.8 2.4 22 2 21.1 2c-2.5 0-4.3 3.5-5.2 5.8C15 5.5 13.2 2 10.7 2c-.9 0-1.7.4-2.5 1.2C6.8 4.5 6.8 5.7 7 6.5c.9 3 7.3 4.2 8.6 4.4h.6c1.3-.2 7.7-1.4 8.6-4.4zM8.7 6c-.2-.5.1-1 .7-1.6.5-.4.9-.7 1.3-.7 1.4 0 2.9 2.7 3.8 5.2C11.9 8.3 9 7.2 8.7 6zm14.4 0c-.4 1.2-3.3 2.3-5.8 2.9.8-2.2 2.3-5.2 3.8-5.2.4 0 .8.2 1.3.7.6.6.9 1.1.7 1.6zM4.4 17.2h10.5V12H6.1c-1 0-1.8.8-1.8 1.8v3.4zM17.2 12v5.2h10.5v-3.5c0-1-.8-1.8-1.8-1.8h-8.7zM5.5 30h9.3V19.3c0-.5-.4-1-1-1H6.5c-.5 0-1 .4-1 1V30zM17.2 30h9.3V19.3c0-.5-.4-1-1-1h-7.3c-.5 0-1 .4-1 1V30z" fill="#ffffff" class="fill-222a30"></path></g></g></svg>