<svg viewBox="1 -1 100 100" xml:space="preserve" xmlns="http://www.w3.org/2000/svg" enable-background="new 1 -1 100 100"><path d="M66.3 8.1C61.2 6.4 56 5.6 50.7 5.8 27 6.5 8.3 26.3 9.1 50.1c.1 4.9 1.1 9.7 2.9 14.2 1.5 3.8 3.5 7.4 6.1 10.6l-3.6 8.5c-1.4 3.2.1 7 3.4 8.3 1.1.5 2.4.6 3.6.4L38 89.2c22.4 7.8 46.9-4 54.7-26.4 7.8-22.4-4-46.9-26.4-54.7zm-31.6 48c-3.6 0-6.6-2.9-6.6-6.6 0-3.6 2.9-6.6 6.6-6.6 3.6 0 6.6 2.9 6.6 6.6s-3 6.6-6.6 6.6zm17.3 0c-3.6 0-6.6-2.9-6.6-6.6s2.9-6.6 6.6-6.6c3.6 0 6.6 2.9 6.6 6.6s-3 6.6-6.6 6.6zm17.3 0c-3.6 0-6.6-2.9-6.6-6.6s2.9-6.6 6.6-6.6c3.6 0 6.6 2.9 6.6 6.6s-3 6.6-6.6 6.6z" fill="#ffffff" class="fill-000000"></path></svg>